<svg height="50" viewBox="0 0 200 50.000001" width="200" xmlns="http://www.w3.org/2000/svg">
  <path d="m57.714084 44.010609c-3.751041-.308511-6.913688-1.162004-10.299007-2.779364-3.502256-1.67323-8.123465-5.131468-6.857126-5.131468.111682 0 .986302.40211 1.943601.893573 8.066918 4.141472 17.345868 5.353755 26.044868 3.402728 1.958635-.439285 3.731643-.975126 5.545102-1.675848 1.484556-.573633 1.979049-.577194 1.979049-.01426 0 .270359-.229488.493958-1.094056 1.06596-4.573944 3.026148-11.456721 4.716165-17.262431 4.238664zm18.781407-1.593534c.000827-.01942.286583-.861128.635127-1.870486.435713-1.261794.633754-2.065742.633846-2.573076.000282-1.256343-.303337-1.326784-4.831985-1.121209-.68279.03098-.722972-.166259-.117049-.574588.942301-.635019 2.321567-.95471 4.102156-.950822 1.818016.004 2.377945.176254 2.596966.799033.200576.570342-.258939 2.668894-.857348 3.915404-.506983 1.056065-1.614488 2.411038-1.97069 2.411038-.105841 0-.191801-.01587-.191023-.0353zm10.181331-7.596c-1.966299-.395269-3.3876-1.954857-3.980741-4.368048-.26065-1.060465-.232832-3.390492.05349-4.47994.702636-2.673502 2.394797-4.165917 4.748931-4.188353 1.425337-.01358 2.347156.317954 3.296527 1.185624.865938.791419 1.395167 1.694214 1.710664 2.918156.723121 2.805272.205143 5.680868-1.339338 7.435496-1.035641 1.176548-2.934354 1.80969-4.489536 1.497065zm1.851755-2.67138c.600049-.471999.841399-1.310444.91904-3.192757.0743-1.801176-.105551-3.323854-.477554-4.043229-.303408-.586722-1.082173-.888018-1.765836-.683188-1.05649.316531-1.484277 1.762479-1.352875 4.572825.09016 1.928315.357025 2.909114.909854 3.343969.467329.367599 1.301645.368722 1.767371.0024zm45.172543 2.641422c-.69823-.267084-1.41016-.895406-1.76338-1.556297-.31021-.580442-.31822-.710922-.359-5.852211l-.0417-5.258536h1.12422 1.12421l.0471 4.693861c.0512 5.109874.0679 5.219096.89494 5.86962.79457.625015 2.4235.506231 4.02197-.293291l.91759-.458965.0706-4.870318.0706-4.870321 1.08988-.04116c1.03493-.03907 1.09387-.02486 1.16859.282337.0433.177921.061 2.95982.0395 6.181995l-.0392 5.8585-.94861.04165c-.93719.04114-.94963.0369-1.03354-.352924-.19703-.915268-.20795-.919289-1.04884-.386642-1.23082.779643-2.1762 1.077772-3.60395 1.136518-.79906.03288-1.44134-.01305-1.73089-.123817zm12.83785-.02836c-.49082-.11122-1.12608-.316447-1.41169-.456069-.4917-.240358-.52161-.294298-.56266-1.014659l-.0433-.760802.53744.08606c.2956.04733.95036.181003 1.45504.297045 1.27314.292735 3.1389.285395 3.77159-.01483.60962-.289282 1.02692-.940362 1.02762-1.603328.00076-.942248-.47761-1.296416-3.12855-2.315096-1.82353-.700725-2.54588-1.179416-3.03469-2.011005-.33875-.576313-.39993-.834034-.39639-1.669688.007-1.550363.67097-2.533539 2.18393-3.2318 1.17848-.543894 4.60007-.349849 5.62683.319107.10551.06874.22481.417579.26511.775196.0939.833144-.09.914164-1.37228.604662-.52814-.127475-1.44554-.231773-2.03866-.231773-1.74204 0-2.481.483541-2.481 1.623439 0 1.026146.42765 1.3514 3.15501 2.39961 2.6136 1.004491 3.33875 1.796865 3.33875 3.648278 0 1.653929-.62014 2.565193-2.25795 3.317972-.64349.295766-1.02839.363624-2.2587.39821-.92739.02607-1.81738-.03408-2.37541-.160518zm-114.231608-.0654c-1.149374-.349623-1.852944-1.045269-2.183722-2.159118-.476253-1.603711-.139823-3.050272.964604-4.147567.859116-.853566 1.759708-1.23089 3.488828-1.461712 2.318448-.309499 2.10743-.216009 2.10743-.93368 0-1.378899-.642923-2.002303-1.916907-1.858709-.740997.08352-1.247569.486364-1.473871 1.172072-.08366.253468-.228429.486042-.321729.516829-.0933.03078-.70913-.01124-1.368521-.09339-1.378412-.171741-1.42948-.236333-1.061872-1.343096.296276-.892011 1.142509-1.765159 2.163957-2.232795.640715-.293331 1.076504-.376104 2.256419-.428578 1.825972-.08121 2.858584.188832 3.761629.983728 1.020928.898654 1.101114 1.250345 1.169703 5.130066l.0599 3.388051.412596.67993c.226923.373964.412592.790718.412592.926125 0 .30692-1.765531 1.852577-2.116109 1.852577-.14168 0-.545562-.320286-.897519-.711748l-.639925-.711748-.854918.629358c-1.134001.834804-2.769345 1.166371-3.962563.803408zm3.23907-2.530105c.809657-.586659 1.128639-1.401412 1.134702-2.898303l.0032-.831158-.800564.09409c-1.735098.203926-2.585932.938062-2.586959 2.232134-.000804.866308.244806 1.378814.77248 1.612682.490844.217544.984227.147579 1.476969-.209445zm26.627183 2.460699c-1.847195-.689022-2.619692-2.551986-1.969328-4.749268.169921-.57408.409373-.948005.952888-1.488011.859121-.853566 1.759713-1.23089 3.488833-1.461712.654407-.08736 1.403622-.192035 1.664918-.232616l.475079-.07378-.0621-.858545c-.05471-.756374-.117822-.908331-.530318-1.276893-.423094-.378038-.54121-.412298-1.225786-.355526-.865663.07179-1.360012.434291-1.605144 1.177038-.08365.253469-.228426.486043-.321726.516831-.0933.03078-.7096-.01124-1.369564-.09339l-1.199934-.149375.0118-.594837c.02462-1.241014 1.312821-2.59643 2.921757-3.074233.414654-.123136 1.270492-.213068 2.027672-.213068 1.516199 0 2.590524.324726 3.386503 1.023607.928966.815643.955084.93666 1.043425 4.834893.07413 3.27118.102585 3.572387.389172 4.119608.170059.324715.373631.630213.452383.678883.07875.04867.142502.22768.141668.397794-.0016.368856-1.712142 1.932736-2.113735 1.932736-.24421 0-.86143-.556898-1.32328-1.193959-.194233-.267919-.223482-.259019-.957239.291244-.416286.312185-.947462.64955-1.180391.749698-.658766.28324-2.443731.33676-3.097551.09288zm2.982485-2.207542c1.017899-.384589 1.597337-1.524282 1.597337-3.141792v-.840826l-.80056.09409c-1.735097.203926-2.585931.938062-2.586963 2.232134-.000826.867271.245298 1.379785.772481 1.609479.528344.230199.532139.230372 1.017705.04692zm99.53679 2.200033c-1.81202-.498781-3.13744-1.925883-3.60826-3.885079-.88845-3.697114.36061-7.230676 2.97155-8.406337.73629-.331539 1.12405-.40652 2.3732-.458917 1.48029-.06208 2.86205.172318 3.34192.566929.19837.163129.24327 1.464271.0546 1.580905-.067.04144-.59114-.0243-1.16465-.146088-1.39549-.296324-2.63708-.182603-3.65134.334448-.66048.336699-.83566.515975-1.19972 1.227853-.38718.75707-.43105.982909-.47795 2.460422-.0595 1.87463.11185 2.833224.65697 3.675078.77076 1.190289 2.55049 1.65427 4.68582 1.221599 1.31012-.265469 1.40786-.225633 1.41177.575382.003.620282-.36668.985041-1.25869 1.24186-.93028.267837-3.18192.274344-4.13519.01196zm-122.01469-.108808c-.03723-.09706-.05112-2.939839-.03086-6.317303l.03682-6.140837 1.249188-.04099c.799629-.02623 1.320366.01808 1.446979.12316.126504.104992.198105.450478.198662.958588l.000826.794437.21947-.423509c.401275-.774342 1.077539-1.34142 1.876786-1.573766 1.383113-.402085 2.714155.08783 3.460961 1.273869l.406295.645259.395772-.546348c.583654-.805713 1.262994-1.262571 2.139013-1.438504 1.482971-.297822 3.027621.454268 3.588344 1.747164.232666.536477.264251 1.123369.306267 5.690514.03993 4.340766.01631 5.117682-.160011 5.264018-.138505.114954-.643024.158207-1.526885.1309l-1.320008-.04078-.07058-4.472051c-.06732-4.265743-.08428-4.490431-.367346-4.870321-.778057-1.044203-2.201504-.632086-2.584796.748344-.09189.330915-.152308 2.118671-.152783 4.520327-.000827 3.492079-.0278 3.983283-.224087 4.058598-.413458.158662-2.536137.09316-2.713011-.08371-.124103-.124103-.169461-1.28489-.169623-4.340939-.000282-4.57892-.05385-4.910024-.86827-5.361589-.516221-.286228-1.338013-.06815-1.729602.458974-.282842.380733-.297763.588737-.338956 4.724085-.02784 2.795357-.09639 4.39004-.193746 4.507343-.208238.250909-2.778797.255442-2.874848.0051zm52.059589.01177c-.272632-.272632-.24991-12.160686.02369-12.387742.126613-.105079.64735-.149403 1.446979-.12316l1.249185.04099.07059 1.058765.07058 1.058765.207778-.493056c.353689-.839296 1.089629-1.529978 1.880484-1.764837.891465-.264736 1.142195-.265102 2.024895-.0029.91579.271959 1.67658 1.027926 1.98148 1.968918.33844 1.044488.46512 10.378756.14446 10.644869-.1434.11901-.6339.162048-1.53103.134335l-1.32002-.04078-.0746-4.37623c-.0646-3.787525-.10751-4.437385-.31909-4.830845-.61559-1.144732-2.030464-.943582-2.619705.372442-.184906.412975-.240003 1.269163-.300521 4.670158l-.07411 4.164475-1.343443.04c-.924328.02752-1.397769-.0143-1.517566-.13411zm15.307381-.0706c-.0518-.05176-.0941-2.846901-.0941-6.211424v-6.11731h.98652.9865l.0903.564677c.0497.31057.13801.564674.19632.564674.0583 0 .45829-.212133.88887-.471406 1.21474-.73148 2.23685-1.010864 3.69817-1.010864 1.13645 0 1.34127.04159 1.94107.394164.3688.216791.67196.439128.67369.494088.002.05496.11947.251223.26167.436139l.25853.336212.97355-.568388c1.46426-.854871 2.30372-1.091909 3.86753-1.092075 1.48566-.00014 1.87706.137874 2.65906.937725.8098.828269.87015 1.303559.87015 6.852033v4.985868h-1.1178-1.11779l-.05-4.693857c-.0423-3.976861-.0854-4.773051-.28211-5.212263-.34651-.773806-.84462-1.036346-1.94367-1.024486-.98605.01063-1.61067.17248-2.79416.723952l-.74114.345349v4.930651 4.930654h-1.12081-1.12081l-.0438-4.764444c-.0413-4.49112-.0604-4.79279-.33096-5.258536-.4318-.743006-1.07801-1.02289-2.13283-.923757-.91613.0861-2.28654.50161-2.83101.858368l-.32519.213068-.002 4.62002c-.002 2.541013-.0403 4.762954-.0871 4.937653-.0783.292187-.16672.317628-1.10389.317628-.56033 0-1.06112-.04235-1.11289-.09411zm45.78572-6.117311v-6.211423h1.12935 1.12934v6.211423 6.211424h-1.12934-1.12935zm-83.425739 5.797196c-.162302-.30327-.195358-1.704239-.05658-2.398148.04926-.246288 1.126479-1.953548 2.393829-3.793906l2.304267-3.346113-1.99601-.03932c-1.178184-.0232-2.072244-.102597-2.182074-.193746-.192325-.159615-.265255-1.725582-.100378-2.155251.07539-.196466.574052-.223301 4.149376-.223301 3.575323 0 4.073983.02683 4.149371.223301.157554.410577.08801 1.621429-.115763 2.015476-.110796.214261-1.095447 1.675409-2.188113 3.246996-1.092667 1.57159-1.986664 2.9088-1.986664 2.971579 0 .06278.524089.147888 1.164639.189134 1.136325.07317 2.302547.412539 3.009545.875784.32092.210271.343214.306432.343214 1.480381 0 1.362325-.08872 1.51375-.705846 1.204744-2.08531-1.044153-5.376043-1.069216-7.361974-.05606-.653038.333155-.64171.333175-.820844-.0016zm83.919819-14.534719c-.76524-.332788-1.0663-1.457268-.5863-2.189849.48802-.744824 1.91137-.769265 2.42106-.04157.32624.465755.27183 1.425558-.10565 1.864417-.34519.401304-1.2222.587449-1.72911.367004z" fill="#fff" stroke-width=".843042" />
</svg>
