<svg height="50" viewBox="0 0 200 50.000001" width="200" xmlns="http://www.w3.org/2000/svg">
  <path d="m101.02838 37.059716c-.31557-.01727-.72076-.05535-.97488-.09191-2.85582-.410622-4.813976-2.039144-5.431102-4.516835-.0558-.224022-.09612-.433724-.148314-.771788-.032-.205843-.03504-.70979-.04113-6.402889l-.0066-6.179478h1.81766 1.817609l.0072 5.793584c.0051 4.347854.0132 5.836641.03148 5.96617.132931.946099.428951 1.60613.956967 2.133535.600369.599709 1.4372.913044 2.4384.913044 1.92236 0 3.18946-1.160981 3.39144-3.10751.0126-.12181.0202-2.312925.0202-5.94586l.00035-5.752963h1.83807 1.83814l-.00031 5.844359c-.00031 5.843496-.005 6.271636-.0721 6.785636-.23529 1.799127-1.16752 3.280351-2.65724 4.221981-.24966.15781-.79864.433927-1.08877.547613-.70269.275356-1.4271.4419-2.28491.525375-.29769.02894-1.18936.05225-1.45223.03808zm16.81629-.01016c-2.56549-.127651-4.45012-1.090455-5.43505-2.776607-.38438-.657999-.63685-1.478277-.68726-2.232647-.007-.0982-.0168-.221942-.0223-.275001l-.0102-.09647h1.76627 1.76624l.0132.116784c.0193.170859.10205.47409.17467.641244.29059.668661.87517 1.179564 1.67402 1.463094.82581.293077 1.98004.330905 2.88754.09465.91864-.239204 1.53291-.770721 1.74902-1.513515.0699-.240473.0912-.435147.079-.725379-.0162-.382695-.0931-.636927-.274-.903042-.10083-.148264-.35918-.39615-.53248-.510902-.32734-.216762-.90563-.448856-1.49284-.599202-.15639-.04011-.8967-.21534-1.64512-.3896-1.85188-.431186-1.93044-.451547-2.40935-.625605-.78687-.285866-1.44807-.678614-1.96903-1.169563-.75969-.715934-1.17789-1.566778-1.32996-2.705571-.0405-.30374-.0463-1.024394-.0102-1.338239.20336-1.783843 1.19363-3.155899 2.87993-3.990191 1.26625-.626416 2.90086-.887301 4.57524-.7301 1.4738.138312 2.7597.622761 3.72697 1.403993 1.13183.914162 1.76718 2.170093 1.84461 3.646339l.01.177715h-1.7121-1.71209l-.0133-.106629c-.1474-1.210082-1.08455-2.054985-2.48444-2.239757-.27825-.03656-.86176-.04164-1.14193-.0096-1.04273.118713-1.78396.554112-2.1304 1.251311-.14451.29079-.20503.566046-.20503.932289 0 .808497.4978 1.401962 1.49859 1.786483.2875.110488.55142.176852 2.02497.50938 1.73969.392545 2.05693.469978 2.46095.600623 1.59297.515016 2.61681 1.295638 3.18041 2.424885.70016 1.402927.65755 3.478984-.10027 4.884703-.51954.963617-1.28645 1.682344-2.35234 2.204469-1.26913.621643-2.82743.890195-4.64179.799917zm25.54133.0096c-.86517-.05256-1.55769-.178324-2.24433-.407473-1.87494-.625808-3.25562-1.989231-3.97678-3.926976-.29505-.792961-.45455-1.512499-.56716-2.559135-.0321-.296478-.0361-.554163-.0361-2.234121 0-1.673103.005-1.938912.0361-2.234173.14227-1.33189.426-2.369589.90786-3.320766.44927-.886692.98636-1.559214 1.70615-2.136227.97348-.780317 2.13502-1.23953 3.59552-1.421409.23778-.02945.44302-.03655 1.06629-.03655.69075.000253.80803.0051 1.11706.04722 1.09705.148467 1.98883.445859 2.84485.94874.71273.418795 1.45019 1.11706 1.91545 1.813699.52091.780064.85207 1.690468.96879 2.663276.0168.139633.0361.452714.0432.695675l.0126.441746h-1.77014-1.77019v-.148564c0-.30968-.0763-.746145-.19233-1.100254-.28414-.86694-.82272-1.511028-1.58481-1.895297-.71684-.361471-1.63431-.449312-2.48034-.237476-1.21825.305059-2.06 1.251665-2.4559 2.761779-.0816.311152-.15761.737362-.20473 1.147882-.0442.384624-.0651 3.000171-.029 3.615265.13045 2.220157.87943 3.5947 2.26215 4.151453.33055.133134.67211.20554 1.1069.234736.9231.06195 1.80614-.180355 2.40012-.658609.38725-.311863.61428-.596612.82398-1.033586.21828-.454897.35263-1.013478.35364-1.470306l.00036-.167559h1.77024 1.77024l-.0126.441799c-.0183.644391-.094 1.150267-.2486 1.663048-.37274 1.236434-1.14286 2.309117-2.20285 3.068363-.96428.690698-2.14811 1.115181-3.50355 1.256184-.27642.02894-1.17617.0526-1.42172.03758zm-88.309881-.05108c-.367869-.03859-.833226-.231079-1.20277-.497142-.533295-.383965-1.166973-1.083701-1.837818-2.029344-.909948-1.282842-1.581606-2.622147-2.085553-4.158766-.451394-1.376422-.656578-2.490537-.715274-3.883309-.08449-2.007409.346086-3.714125 1.288986-5.109029.134302-.198685.438955-.580821.61088-.766303.312371-.336946.815252-.738479 1.240395-.990326.862116-.510699 1.766377-.767775 2.7009-.767928.682168 0 1.201601.130239 2.356033.591129.852113.340145 1.289645.4649 1.561904.445402.168321-.01219.52446-.120288 1.190127-.361521 1.18581-.429763 1.626592-.566351 2.127593-.659167.606768-.112468 1.055826-.112671 1.716212 0 1.541137.261087 2.742028.964936 3.60191 2.111041l.15055.200665-.202898.137652c-.482825.327553-.889588.694253-1.24664 1.123864-.44327.533347-.799715 1.266697-.955849 1.966586-.08682.389143-.115057.632053-.127396 1.096496-.02691 1.019116.13288 1.824008.522125 2.626463.245195.50547.542434.927922.955137 1.357431.486632.506486 1.017592.885119 1.660917 1.18434.02741.01269-.37396 1.087863-.574931 1.539309-.191424.429916-.569344 1.129145-.876842 1.622326-.27576.442306-.806212 1.193225-1.136152 1.608416-.592753.745841-1.241917 1.245015-1.899156 1.460201-.738934.241945-1.375354.158063-2.624635-.345984-.869783-.350909-1.474773-.475918-2.166386-.447637-.616821.02539-1.127215.139836-1.756832.394679-.562896.227779-.624182.25149-.863233.333746-.311558.107288-.674197.192339-.931323.218539-.231639.02386-.24611.02336-.479981 0zm18.594031-9.096935v-8.814775h1.874935 1.874936l2.388022 5.458415 2.38802 5.458464h.06789.06789l2.386855-5.458008 2.386853-5.458059 1.863512-.000407 1.863459-.000405v8.814724 8.814776h-1.655286-1.655331v-5.707265-5.707214h-.07707-.07707l-1.989486 4.529171-1.989535 4.529173h-1.149825-1.149812l-1.996187-4.529223-1.996237-4.529222h-.07824-.07829v5.707214 5.707264h-1.635016-1.63497v-8.814775zm55.44769 0v-8.814775h1.82797 1.82792v8.814775 8.814725h-1.82792-1.82797zm-70.327343-9.446727c-.02894-.04518-.03452-.547562-.0091-.837998.09302-1.067351.576048-2.115662 1.39587-3.029214.76412-.851505 2.062601-1.538091 3.124367-1.652032.100536-.01067.187362-.01524.192947-.0096.02234.02233.0087.900959-.01727 1.093246-.13552 1.011905-.533092 1.909057-1.228665 2.772393-.707302.877907-1.560482 1.445526-2.445703 1.627048-.261747.05366-.984738.07941-1.012665.03605z" fill="#fff" stroke-width=".020311" />
</svg>
