<svg height="50" viewBox="0 0 200 50.000001" width="200" xmlns="http://www.w3.org/2000/svg">
  <g fill="#fff" transform="matrix(.0111161 0 0 -.0111161 17.693061 42.353502)">
    <path d="m3748.32 1624.45c-238.45 0-360.28-187.68-360.28-470.41 0-267.259 131.74-467.841 360.28-467.841 258.45 0 355.34 236.512 355.34 467.841-.18 241.57-121.95 470.41-355.42 470.41m-633.5 701.66h283.24v-678.52h5.01c77.02 128.48 238.52 208.19 382.64 208.19 404.94 0 601.3-318.83 601.3-706.97 0-357.169-173.9-693.892-554.12-693.892-173.94 0-360.29 43.602-444.79 218.434h-4.92v-182.571h-268.38v1835.289z" />
    <path d="m5368.94 938.059c0-185.039-193.83-251.938-318.05-251.938-99.43 0-260.98 38.688-260.98 169.699 0 154.27 109.38 200.57 231.18 221.15 124.18 23.11 260.86 20.47 347.85 79.59zm1212.13 917.721c-168.96 0-315.58-89.95-400.08-236.55l-4.95 5.22v195.3h-268.35v-1131.77c-161.55-1.832-176.6-1.832-188.92-1.832-52.16 0-67.11 28.282-67.11 100.262v683.8c0 280.09-263.35 385.57-514.39 385.57-283.26 0-563.98-100.21-583.79-442.17h283.19c12.47 143.96 124.21 210.84 283.25 210.84 114.28 0 265.87-28.36 265.87-179.98 0-172.21-181.39-149.05-385.14-187.68-238.53-28.18-494.43-82.31-494.43-413.731 0-259.7 208.68-388.141 439.73-388.141 151.6 0 332.95 48.844 444.83 161.742 22.27-120.719 104.36-161.742 218.63-161.742 47.2 0 136.63 17.934 579.75 33.352v2.621h1.76v783.859c0 195.42 121.78 349.66 310.58 349.66 166.47 0 246.05-90.01 250.96-298.17v-835.388h283.37v912.458c.55 298.13-175.95 452.43-454.3 452.43" />
    <path d="m7860.88 686.148c253.41 0 360.31 239.09 360.31 470.482 0 292.91-136.64 467.82-355.35 467.82-265.88 0-360.32-244.22-360.32-483.22 0-228.789 109.29-455.031 355.41-455.031m633.54-195.347h-268.39v179.918h-4.91c-74.52-151.661-236.13-215.852-397.6-215.852-404.94 0-601.29 311.043-601.29 709.382 0 480.66 275.84 691.44 556.65 691.44 161.43 0 340.29-61.73 427.28-208.15h5.05v678.46h283.22v-1835.241z" />
    <path d="m9620.12 1375.04c-22.39 161.94-136.66 249.39-293.18 249.39-146.68 0-352.86-79.73-352.86-483.29 0-221.081 94.38-455.019 340.42-455.019 163.96 0 278.22 113.231 305.62 303.457h283.23c-52.19-344.437-258.37-534.66-588.85-534.66-402.55 0-623.67 295.523-623.67 686.222 0 400.96 211.2 714.56 633.6 714.56 298.15 0 551.67-154.21 578.92-480.67h-282.77z" />
    <path d="m10877.6 938.059c0-185.039-193.8-251.938-318.1-251.938-99.3 0-260.8 38.688-260.8 169.699 0 154.27 109.4 200.57 231 221.15 124.3 23.11 261 20.47 347.9 79.59zm1973 917.721c-186.4 0-308.1-84.87-402.5-221.07-57.2 151.58-203.8 221.07-360.4 221.07-203.7 0-310.6-89.95-395-221.07h-7.5v185.04h-268.5v-1131.77c-161.5-1.832-176.5-1.832-189-1.832-52.1 0-67 28.282-67 100.262v683.8c0 280.09-263.3 385.57-514.4 385.57-283.2 0-564-100.21-583.9-442.17h283.3c12.4 143.96 124.3 210.84 283.3 210.84 114.3 0 265.8-28.36 265.8-179.98 0-172.21-181.4-149.05-385.1-187.68-238.6-28.18-494.5-82.31-494.5-413.731 0-259.7 208.7-388.141 439.8-388.141 151.6 0 332.9 48.844 444.8 161.742 22.3-120.719 104.3-161.742 218.7-161.742 47.1 0 136.6 17.934 575.7 33.352v2.621h5.8v789.039c0 221.04 134.2 344.48 280.8 344.48 171.4 0 226.1-97.62 226.1-280.26v-853.298h283.2v778.798c0 223.67 82 354.74 273.4 354.74 221.1 0 233.5-146.5 233.5-357.36v-776.171h283.3v917.571c.1 323.94-158.8 447.31-429.5 447.31" />
    <path d="m14170 1624.45c-238.5 0-360.3-187.68-360.3-470.41 0-267.259 131.7-467.841 360.3-467.841 258.4 0 355.4 236.512 355.4 467.841 0 241.57-122 470.41-355.4 470.41m-633.6 195.3h268.4v-179.92h5c79.5 151.6 233.5 215.95 397.5 215.95 405 0 601.3-318.83 601.3-706.97 0-357.169-173.9-693.892-554-693.892-164 0-340.5 61.66-429.9 208.07h-5v-662.988h-283.3v1819.64z" />
    <path d="m2124.47 494.77h-2124.47l992.094 1831.34h2124.486z" />
  </g>
</svg>
