<svg height="50" viewBox="0 0 200 50.000001" width="200" xmlns="http://www.w3.org/2000/svg">
  <path d="m73.275901 36.525008c-1.426513-.373902-2.244123-.838206-3.289514-1.868014-.716571-.706005-1.056952-1.162153-1.395798-1.870762-1.588659-3.322056-1.063417-7.67608 1.223141-10.140169 1.338245-1.44208 3.128984-2.199599 5.228498-2.211781 2.063464-.01197 3.617448.703912 4.765415 2.195276l.276363.359133v-4.871829-4.871821h2.116327 2.116328v11.577392 11.577391h-2.054087-2.054089v-1.0042-1.004201l-.591684.607472c-.325428.334108-.860936.76528-1.190082.958143-1.347216.789562-3.429433 1.019154-5.150818.56797zm4.470218-3.719876c.81761-.351189 1.648475-1.158695 2.046894-1.989488.268522-.559805.347817-.932665.390254-1.835996.08446-1.79402-.366651-2.998351-1.479942-3.951289-.811629-.694738-1.721467-.988867-2.851894-.921971-2.127644.125911-3.503313 1.47143-3.859779 3.775327-.372876 2.410037.944918 4.615222 3.079837 5.153786.684965.172801 1.999607.05957 2.67463-.230369zm14.333912 3.84067c-1.722517-.31082-3.297517-1.148452-4.445484-2.364277-1.460543-1.546895-2.120531-3.323714-2.12627-5.724447-.0081-2.123247.491779-3.677643 1.685173-5.272527 2.532771-3.384783 8.240438-3.877806 11.339028-.979459 1.297263 1.213474 1.991442 2.918677 2.012862 4.944861.008.684683-.0307 1.454949-.0839 1.71171l-.0971.466833h-5.339488-5.339561l.06629.466827c.179849 1.264703 1.123394 2.427648 2.335622 2.878599 2.218418.825248 4.296755.141406 5.140474-1.691373l.298752-.648979.58425.231292c2.299331.910177 2.953661 1.17169 2.982361 1.191996.0728.05157-.39398 1.022865-.7869 1.637175-.881709 1.378249-2.08836 2.297276-3.747667 2.854286-.771536.259008-1.270103.335636-2.406108.369788-.788025.02369-1.720577-.0088-2.072355-.07226zm4.343798-10.453997c-.08665-.888078-.578752-1.572032-1.45165-2.017801-.722714-.36902-1.975116-.438358-2.864584-.158575-.81656.256832-1.71201.987395-2.069688 1.688623-.466155.913727-.631536.86914 3.086223.832128l3.330092-.03314zm11.341781 10.453997c-3.7998-.685627-6.3675-3.636321-6.6032-7.588039-.24201-4.058916 2.10727-7.464787 5.81106-8.424426 1.07344-.278124 3.02543-.270761 4.17033.01577 2.45073.613259 4.24639 2.38172 4.86322 4.789485.21267.830091.28711 2.762592.13571 3.523102l-.093.466833h-5.35298-5.35298l.083.466826c.30563 1.71833 1.47194 2.825106 3.31529 3.14612 1.88209.327747 3.45952-.413291 4.17131-1.959547l.29908-.649618.52176.207187c.28696.113948 1.09778.438074 1.8019.72028l1.28013.513094-.49622.991495c-.85164 1.701573-2.44597 3.013579-4.36708 3.593812-.81115.244992-3.26115.354785-4.18739.187657zm4.31187-10.457998c0-1.400419-1.58074-2.479334-3.4144-2.330426-1.29411.10509-2.41007.808573-2.94452 1.856051-.45686.895612-.61416.851842 3.05995.851842h3.29897zm26.26697 10.504638c-2.79191-.421083-4.9013-1.885279-6.08467-4.223626-.64471-1.273952-.82246-2.151513-.81777-4.036226 0-1.509899.0396-1.781622.35033-2.675302.72998-2.098375 2.04252-3.643854 3.83447-4.515136 1.33486-.648987 2.11714-.824206 3.65132-.817829 2.189.0091 3.88427.650629 5.23423 1.980855.85714.844535 1.54745 2.105092 1.78727 3.263681.14841.716894.18374 2.745559.059 3.370612l-.0776.389025h-5.33738c-6.06753 0-5.52692-.117229-5.1298 1.112346.41789 1.294037 1.60337 2.226161 3.18047 2.500794 1.89994.330859 3.50501-.457046 4.15458-2.039336.13077-.318564.29382-.556282.36228-.528265.0687.02804.86676.342983 1.77393.699927 1.08992.428802 1.64952.712035 1.64952.834826 0 .442537-.86393 1.777531-1.69285 2.61606-1.05331 1.065423-2.20492 1.675263-3.7058 1.962432-.89019.170328-2.42389.220872-3.19106.105162zm3.98362-10.505599c0-.208133-.11148-.597021-.24783-.864201-.8645-1.694663-3.76699-2.016994-5.31483-.590239-.45799.422126-1.15969 1.491023-1.15969 1.766481 0 .03653 1.51252.06637 3.36121.06637h3.36114zm-102.951644 8.719129v-1.61835h2.614249 2.614249v1.61835 1.618342h-2.614249-2.614249zm6.224421 0v-1.61835h2.67649 2.676488v1.61835 1.618342h-2.676488-2.67649zm6.224422 0v-1.61835h2.676489 2.676489v1.61835 1.618342h-2.676489-2.676489zm6.348821 0v-1.61835h2.676571 2.676488v1.61835 1.618342h-2.676488-2.676571zm58.75675-.280098v-1.773957l4.32772-4.257293 4.32762-4.257293-4.13922-.0065-4.1392-.0065v-1.805079-1.805077h6.84682 6.84682v1.720552 1.720554l-1.77392 1.729314c-3.71024 3.61685-6.81571 6.683851-6.81571 6.73121 0 .02708 1.96065.04923 4.35706.04923h4.35713v1.867318 1.867319h-7.09587-7.09577zm31.12372-6.068796v-7.842755h2.11625 2.11632v.871418c0 .479283.042.87104.0934.870571.0517-.000469.22811-.198756.39293-.440629.7291-1.070563 1.83382-1.588199 3.37285-1.580374 2.26813.01155 3.82664 1.185546 4.3122 3.248379.17734.753462.218 1.860335.0916 2.492558l-.0776.389025h-1.97625-1.97625v-.583142c0-.326616-.10831-.806972-.24629-1.091992-.32955-.680648-.87864-.993717-1.74652-.995673-.92948-.0024-1.46605.319017-1.86631 1.116791l-.31121.620349-.0372 5.384114-.0372 5.384106h-2.11018-2.1101zm-102.453713 2.116295v-1.618342h2.67649 2.676488v1.618342 1.61835h-2.676488-2.67649zm6.224422 0v-1.618342h2.676489 2.676489v1.618342 1.61835h-2.676489-2.676489zm6.348821 0v-1.618342h2.676571 2.676488v1.618342 1.61835h-2.676488-2.676571zm-12.573243-4.232591v-1.618349h2.67649 2.676488v1.618349 1.618342h-2.676488-2.67649zm12.573243 0v-1.618349h2.676571 2.676488v1.618349 1.618342h-2.676488-2.676571zm0-4.17035v-1.556109h2.676571 2.676488v1.556109 1.556093h-2.676488-2.676571z" fill="#fff" stroke-width=".124487" />
</svg>
