<svg height="50" viewBox="0 0 200 50.000001" width="200" xmlns="http://www.w3.org/2000/svg">
  <path d="m60.448126 41.819745c-8.8141-1.133635-15.243833-8.687997-14.881818-17.484822.139314-3.385276 1.173327-6.442793 3.103495-9.176858.821667-1.163887 2.773419-3.116094 3.939761-3.940686 2.296374-1.6235154 5.089303-2.7042907 7.864037-3.043138 1.354886-.1654544 3.961328-.070901 5.268292.1911175 5.957422 1.1943437 10.79054 5.4039445 12.759136 11.1130865 1.494589 4.334476 1.176623 8.98719-.896981 13.125211-1.632313 3.257403-4.281285 5.899024-7.553182 7.532238-1.770955.883995-3.421092 1.389908-5.364331 1.644644-1.162965.152452-3.210645.171393-4.238409.0392zm9.447895-9.006295c.430522-.207204.611438-.850528.381257-1.355722-.270428-.593517-2.988434-1.87038-5.189439-2.437884-3.123008-.805234-7.024246-.827744-10.733406-.06193-1.244556.256957-1.504904.401793-1.661448.924289-.1525.508986.05628.981542.534348 1.209522.315303.150358.39064.147696 1.411031-.04991 5.32133-1.030437 9.493201-.628721 13.217198 1.272706 1.490598.76108 1.494011.761916 2.040459.498918zm2.135546-4.622222c.469665-.425039.598054-1.156277.293903-1.673895-.445726-.758548-3.605449-2.182575-6.437868-2.901425-2.196049-.557341-3.168326-.661457-6.204213-.664367-3.045865-.003-3.97932.09916-6.102694.667418-1.027268.274915-1.282847.421792-1.488658.855499-.422865.891129.158848 1.867903 1.112421 1.867903.174688 0 .735231-.10593 1.245658-.235418 1.734007-.439866 2.9212-.572078 5.13768-.572159 2.099048-.000077 3.136969.09571 4.779617.441095 2.077348.436786 4.082339 1.154413 5.552075 1.987199.451142.255628.924326.480808 1.051515.500396.345693.05325.841557-.07406 1.060564-.272246zm1.986423-5.09684c.577719-.294731.816779-.703227.816779-1.395695 0-.867459-.234986-1.121602-1.743688-1.885834-5.083237-2.574916-12.614049-3.471989-18.952045-2.257575-1.47246.282137-2.398597.556262-2.734826.809473-.826269.622264-.797874 1.920552.05473 2.502617.516503.352608.839686.358752 2.124456.04039 5.951769-1.474851 13.78644-.655173 18.545785 1.9403.900088.490858 1.30578.543766 1.888798.246333zm70.55135 13.136561c-.66407-.184759-1.52948-.57772-1.52948-.694495 0-.116287.84768-1.942039.97022-2.089699.0717-.0864.20197-.06561.5419.08654.28576.127881.66082.203381 1.03763.208876.67638.0097.9755-.154434 1.29989-.713965l.19724-.340202-1.87024-4.487209-1.87024-4.487209-1.20379-.02674-1.20379-.02676-.0249 4.56738-.0249 4.567381h-1.4817-1.48168l-.0249-4.564532-.0249-4.564531h-.7187-.71871l.0267-1.314395.0266-1.314393.69304-.02809.69305-.02808.002-.545468c.006-2.230599 1.05245-3.559064 3.02121-3.838281.69694-.09885 1.86682-.01595 2.61384.185193l.3856.103828v1.233374c0 .678356-.0355 1.255303-.0788 1.282105-.0433.0268-.33372-.01795-.64524-.09945-.78434-.205204-1.58931-.138686-1.90444.157369-.27293.256394-.45584.821837-.41206 1.273718l.0293.303776 2.29448.02556 2.2945.02555 1.52107 3.968787c.83656 2.182834 1.55326 3.935017 1.59262 3.893741.0394-.04128.68363-1.827972 1.43171-3.970435l1.36015-3.895386h1.51024c.83063 0 1.52982.03226 1.55376.07169.0635.104598-4.7138 12.389433-5.09443 13.10038-.47442.886146-.9711 1.399906-1.70046 1.758971-.57179.281489-.72997.314877-1.59614.336924-.6397.01628-1.13741-.02446-1.48721-.121808zm-46.872087-.01082c-.03507-.03504-.06373-3.431843-.06373-7.548426 0-7.302069.0044-7.487114.184901-7.583656.200724-.107415 2.090401-.136194 2.575346-.0392l.29872.05975v.708179.70818l.33007-.330067c.85268-.852694 1.84142-1.294784 3.06345-1.369764 2.69409-.1653 5.11459 1.8055 5.64169 4.593534.78824 4.169418-1.64844 7.650856-5.3549 7.650856-1.35333 0-2.43854-.411573-3.32184-1.259816l-.35847-.344241v2.409207 2.409207h-1.465763c-.806156 0-1.494429-.02868-1.529478-.06373zm7.281897-6.058212c.61454-.27099 1.19246-.867743 1.51264-1.562008.24411-.529247.26971-.684639.26971-1.636296 0-.958245-.0246-1.10486-.27717-1.652931-.90775-1.969659-3.34333-2.445965-4.84233-.946972-1.56131 1.561318-1.27222 4.495893.55409 5.62462.79919.49392 1.90076.562628 2.78306.173587zm10.57793 2.810465c-2.2633-.478087-4.12983-2.277242-4.69406-4.524621-.23279-.927179-.14907-2.59711.17631-3.516796.63405-1.792191 2.09097-3.206174 3.9317-3.815803.68368-.22642.92682-.257405 2.01994-.257405 1.09311 0 1.33625.03099 2.0199.257405 2.44828.810841 4.07321 2.921944 4.21407 5.474872.0669 1.213515-.12198 2.132003-.65948 3.205872-1.21457 2.426658-4.18485 3.772905-7.00838 3.176476zm2.85586-2.844206c2.50112-1.223681 2.41961-5.162513-.13149-6.355817-.70751-.330954-1.91852-.348797-2.60174-.03833-.67112.304964-1.34335.983638-1.66178 1.677712-.24132.525994-.27293.702557-.26929 1.50408.005 1.187428.25068 1.849401.93891 2.533634.7682.763736 1.41395 1.012182 2.51111.966129.50946-.02137.8215-.09524 1.21428-.287408zm-29.318012 2.75003c-1.022216-.219306-2.170219-.671843-2.99152-1.179243-.79618-.491879-1.566025-1.107277-1.566025-1.251851 0-.104503 1.700136-2.097409 1.789277-2.097409.03458 0 .304253.189635.599265.421412.638595.50171 1.589734 1.031439 2.239302 1.247159 1.316537.437224 2.902298.384837 3.683466-.121683.657146-.426099.949965-1.306009.635652-1.910107-.343494-.660182-.93397-.954456-3.013389-1.501771-3.079201-.810467-4.254383-1.473758-4.876503-2.752371-.971864-1.99741-.350816-4.404794 1.457645-5.650328 2.162485-1.489364 5.863344-1.255311 8.5082.538082.305562.207187.5777.434399.604761.504909.06241.162648-1.392481 2.24646-1.568452 2.24646-.07202 0-.321801-.131289-.555029-.291755-1.941215-1.335593-4.366225-1.600483-5.41915-.591956-.488663.468059-.557719 1.367428-.145258 1.891788.274016.348356 1.160619.765275 2.242141 1.05435 2.838783.758775 3.991279 1.249425 4.811594 2.048439.904267.880781 1.280432 2.12129 1.073595 3.540423-.289353 1.985267-1.706931 3.422715-3.816108 3.869623-.836924.177333-2.836606.169661-3.693464-.01417zm37.945072-.000951c-.98178-.301489-1.62732-.930251-1.94103-1.890529-.13244-.405437-.16541-1.053311-.19849-3.899619l-.0396-3.413401-.68482-.02791-.68479-.0279-.0268-1.21393c-.031-1.413324-.004-1.455518.89417-1.39927l.5144.03221.0259-1.529476.026-1.529475h1.48167 1.4817l.0478 1.511532.0478 1.511535 1.36949-.000191c.7532-.00009 1.43072.02335 1.50557.05207.10842.04159.13611.313097.13611 1.332498v1.280297h-1.52947-1.52949l.0004 2.939464c.00029 2.746074.0125 2.959582.18681 3.245279.31889.522981 1.25837.626334 2.22634.244919.6104-.240528.64541-.179917.64541 1.117187v1.148165l-.40627.207706c-.22344.114241-.62134.26516-.88423.335382-.62942.168132-2.07781.153725-2.66472-.02652zm5.19793-5.903411c0-4.95812.0209-5.876712.13461-5.920349.17534-.06728 2.51882-.06728 2.69417 0 .11368.04364.13459.962229.13459 5.920349v5.868698h-1.48169-1.48168zm1.07405-7.416872c-1.18635-.280441-1.79287-1.590257-1.24133-2.680706.45728-.904077 1.59174-1.292511 2.45596-.840889.23354.122047.55423.384815.71264.58393.53037.66667.43135 1.920481-.19506 2.470317-.45406.398524-1.18693.596253-1.73221.467348z" fill="#fff" stroke-width=".095592" />
</svg>
