<svg height="50" viewBox="0 0 200 50.000001" width="200" xmlns="http://www.w3.org/2000/svg">
  <path d="m36.198753 15.956858-4.520522 4.52052 4.520522 4.521922 4.521922-4.521922zm4.521922 4.52052 4.521921 4.521922 4.520521-4.521922-4.520521-4.52052zm4.521921 4.521922-4.521921 4.521921 4.521921 4.521922 4.521921-4.521921zm9.042442-9.042442-4.520521 4.52052 4.520521 4.521922 4.521923-4.521922zm57.419582 2.267262v15.446513h5.92373c4.09175 0 8.20499-2.629546 8.20499-7.765269 0-5.448339-4.19666-7.681243-8.41365-7.681243zm-38.350209.0028v3.006679h4.535926v12.439874h3.508027v-12.439874h4.535924v-3.006678zm23.074545 0v15.446472h3.529034v-15.446471zm42.855324 0-6.42509 15.446514h3.77271l1.13853-3.04729h6.51331l1.12873 3.04729h3.87913l-6.36486-15.446546zm19.40827 0v15.447915h9.62922v-3.048682h-6.10159v-12.39927zm-43.56533 3.003887h2.27146c2.83937 0 4.82302 1.877288 4.82302 4.65356 0 2.922544-1.96207 4.758591-4.90564 4.758591h-2.18884zm25.91597.609178 2.30508 6.041366h-4.63115z" fill="#fff" stroke-width="2.70996" />
</svg>
