<svg viewBox="0 0 512 512" xmlns="http://www.w3.org/2000/svg">
  <g fill="#fff">
    <path d="m256 32c-123.5178 0-224 100.4822-224 224s100.4822 224 224 224 224-100.4822 224-224-100.4822-224-224-224zm0 32c106.22197 0 192 85.77803 192 192s-85.77803 192-192 192-192-85.77803-192-192 85.77803-192 192-192z" stroke-miterlimit="10" />
    <path d="m256 32c-37.58832 0-69.58688 28.628981-92.09766 69.1543-22.51077 40.52531-36.57226 94.87572-36.57226 154.8457s14.06149 114.32039 36.57226 154.8457c22.51078 40.52532 54.50934 69.1543 92.09766 69.1543s69.58688-28.62898 92.09766-69.1543c22.51077-40.52531 36.57226-94.87572 36.57226-154.8457s-14.06149-114.32039-36.57226-154.8457c-22.51078-40.525319-54.50934-69.1543-92.09766-69.1543zm0 32c20.48162 0 44.81832 17.936251 64.125 52.69336 19.30668 34.75711 32.54492 84.40673 32.54492 139.30664s-13.23824 104.54953-32.54492 139.30664-43.64338 52.69336-64.125 52.69336-44.81832-17.93625-64.125-52.69336-32.54492-84.40673-32.54492-139.30664 13.23824-104.54953 32.54492-139.30664c19.30668-34.757109 43.64338-52.69336 64.125-52.69336z" stroke-miterlimit="10" />
    <path d="m118.82813 101.40039a16 16 0 0 0 -14.54493 6.66602 16 16 0 0 0 3.78321 22.31054c40.96019 29.08131 92.34104 46.29297 147.93359 46.29297s106.9734-17.21166 147.93359-46.29297a16 16 0 0 0 3.78321-22.31054 16 16 0 0 0 -22.3086-3.78321c-35.51972 25.21864-80.42086 40.38672-129.4082 40.38672s-93.88848-15.16808-129.4082-40.38672a16 16 0 0 0 -7.76367-2.88281zm137.17187 233.92969c-55.59255 0-106.9734 17.21166-147.93359 46.29297a16 16 0 0 0 -3.78321 22.31054 16 16 0 0 0 22.3086 3.78321c35.51972-25.21864 80.42086-40.38672 129.4082-40.38672s93.88848 15.16808 129.4082 40.38672a16 16 0 0 0 22.3086-3.78321 16 16 0 0 0 -3.78321-22.31054c-40.96019-29.08131-92.34104-46.29297-147.93359-46.29297z" stroke-linecap="round" stroke-linejoin="round" />
    <path d="m240 48v192h-192v32h192v192h32v-192h192v-32h-192v-192z" stroke-miterlimit="10" />
  </g>
</svg>
