<svg height="33.203259" viewBox="0 0 161.80432 33.203257" width="161.80432" xmlns="http://www.w3.org/2000/svg">
  <g fill="#fff" stroke-width=".887789">
    <path d="m16.583871 32.137909q-.07102.03551-.142046.03551-.07102 0-.284092 0-.497161 0-1.171879-.177557-.639207-.142046-1.278414-.390627-.603696-.213069-1.065346-.497161-.426138-.284092-.532672-.497161-.03551-.497161-.03551-1.029834 0-.532672 0-1.029833 0-3.977288.568184-8.309691.603696-4.332404 1.953133-9.375037.142046-.497161.284092-1.2429023.177558-.781253.355115-1.6690405-.852276.6747185-2.024156 2.1662018-1.171879 1.455971-2.485805 3.480127-1.2784136 1.988644-2.5923392 4.403426-1.278414 2.379271-2.3437591 4.865076-1.065345 2.450293-1.8465981 4.865075-.7457415 2.414782-.923299 4.47445-1.7045541-.49716-2.37927258-.994321-.63920702-.497162-.63920702-1.207392 0-.639207.39062652-1.811086.39062651-1.17188 1.10085658-2.769897.71023-1.598018 1.7400635-3.55115 1.0298336-1.988644 2.2727361-4.26138 1.4204601-2.59234 2.7698971-4.865076 1.3849486-2.272736 2.6988742-4.1193343 1.313925-1.8465981 2.556828-3.1960351 1.278414-1.3494371 2.521317-2.0596671.497161 0 1.313925.2485805.852276.2485805 1.633529.6036955.816765.355115 1.42046.7457415.639207.3551151.71023.6036956-.497161.994322-1.171879 2.9829661-.674719 1.9886443-1.384949 4.5099603-.674718 2.521317-1.313925 5.362237-.603696 2.805409-.958811 5.397748.816765-1.953132 1.88211-4.048311 1.100856-2.13069 2.308247-4.190357 1.207391-2.095179 2.450294-4.048311 1.278414-1.9531328 2.485805-3.5511503 1.207391-1.6335291 2.237225-2.8409202 1.065345-1.207391 1.882109-1.775575.497161 0 1.313926.2485805.852276.2485805 1.633529.6036955.816764.355115 1.42046.7457415.639207.3551151.71023.6036956-1.136368 2.0241555-1.988644 4.9360984-.852276 2.911943-1.455972 6.107978-.568184 3.196036-.887787 6.356559-.284092 3.125012-.284092 5.610817 0 .816765 0 1.704552 0 .887788.07102 1.846599-.497161 0-1.207391-.142046-.674719-.106535-1.349437-.319604-.639208-.213069-1.17188-.497161-.532673-.24858-.745742-.568184-.03551-.497161-.03551-1.029834 0-.532672 0-1.029833 0-3.977288.568184-8.309691.603695-4.332404 1.953133-9.375037.142046-.497161.319603-1.3494368.177558-.852276.355115-1.7755751-.994322.4971611-2.272736 1.9176211-1.242903 1.3849488-2.556828 3.4091038-1.278414 1.988644-2.556828 4.438938-1.242903 2.450294-2.272736 5.007122-.994322 2.521316-1.704552 5.042633-.674719 2.485805-.816765 4.580984z" />
    <path d="m44.034237 28.728804q-.674719-.568184-.9233-1.42046-.213069-.852276-.213069-1.455971 0-.745742.177558-1.278414-.142046 0-.639207.568184-.497161.568184-1.100857 1.349437-.568184.781253-1.136368 1.526994-.568184.745742-.852276 1.100857-.461649.497161-.887787.781253-.390627.284092-.639207.319603-.568184-.03551-1.207391-.24858-.603696-.177558-1.17188-.532673-.532672-.355115-.95881-.852276-.390627-.497161-.532673-1.136368 0-.994322.03551-1.633529.07102-.639207.24858-1.384948.319604-1.349437.923299-3.053989.639207-1.704552 1.455972-3.338081.816764-1.669041 1.811086-3.089501 1.029834-1.455972 2.166202-2.272736.319603 0 .745741.07102.426138.03551.852276.177557.46165.142046.852276.355115.426138.177558.71023.497161-.319603.355115-1.633529 2.379271-1.278414 2.024156-2.876431 5.823886-.177558.390627-.426138 1.136368-.248581.745742-.497161 1.562506-.248581.816765-.426138 1.598018-.142046.781253-.142046 1.242902 0 .284092.07102.426138.106534.142046.177557.213069.532673-.213069 1.349437-1.171879.816765-.958811 2.272736-2.947455.355115-.497161.816765-1.136368.497161-.639207.994322-1.349437.497161-.745741.923299-1.526994.46165-.781253.745742-1.562506.142046-.426138.355115-.994322.24858-.603696.568184-1.242903.355115-.639207.781253-1.278414.461649-.674719 1.065345-1.242903.461649 0 .994322.106535.532672.106534.994322.284092.497161.142046.852276.355115.355115.177557.532672.390626-.639207 1.562506-1.42046 3.089501-.781253 1.526995-1.455971 3.018478-.674719 1.455971-1.136368 2.911943-.46165 1.455971-.46165 2.84092 0 .745741.106535 1.313925.142046.532673.284092.923299.142046.355115.24858.603696.142046.24858.142046.426138 0 .03551-.07102.106534-.03551.03551-.07102.03551-.24858 0-.639207-.106535-.390626-.106534-.887787-.319603-.46165-.177558-.958811-.426138-.461649-.248581-.887787-.532673z" />
    <path d="m64.16924 15.37648q-.03551.674718-.248581 1.42046-.177557.71023-.461649 1.313926-.284092.568184-.603696.95881-.319603.390627-.603695.390627-.390627-.03551-.46165-.532673 0-.106534.07102-.319603.106535-.248581.213069-.532673.106535-.284092.177558-.568184.106534-.284092.106534-.497161 0-.497161-.24858-.816765-.213069-.355115-.603696-.355115-1.42046 0-2.166202 1.775576-.745741 1.775575-.745741 5.22019 0 .355115.03551.426138.745742-.03551 1.313926-.03551.603696-.03551 1.17188-.03551.03551.07102.03551.284092 0 .319604-.142046.46165-.816764.177557-1.313925.319603-.46165.106535-.710231.213069-.24858.106535-.319603.248581-.03551.106534-.03551.319603 0 .284092 0 .568184.03551.284092.03551.71023 0 2.982966-1.633529 4.794053-1.598018 1.811087-4.474449 2.095179-.497161-.03551-1.029834-.284092-.532672-.248581-1.029833-.639207-.46165-.390627-.816765-.887788-.355115-.461649-.497161-.958811 0-1.349437.568184-2.556828.568184-1.242902 1.526995-2.166201.994322-.958811 2.308247-1.526995 1.349437-.603695 2.911943-.71023 0-.887787-.177557-1.740063-.177558-.852276-.390627-1.633529-.177557-.816765-.355115-1.562506-.177557-.781253-.177557-1.526995 0-.958811.390626-1.88211.390627-.95881 1.029834-1.740063.639207-.816765 1.491483-1.384949.852276-.568184 1.775575-.781253.390627.106535 1.029834.639207.674718.497161 1.313925 1.136368.639207.639207 1.136368 1.313926.497161.639207.603696 1.065345zm-11.718796 16.193245q.852276-.355115 1.598018-1.029834.781253-.674719 1.349437-1.526995.568184-.852276.887787-1.811086.355115-.958811.355115-1.88211-.71023.106535-1.562506.674719-.852276.532672-1.598017 1.313925-.745742.745742-1.242903 1.562506-.497161.816765-.497161 1.42046 0 .781254.71023 1.278415z" />
    <path d="m64.240217 27.130787q0-.319604.03551-.781253.07102-.497161.213069-1.278414.142046-.816765.355115-1.953133.24858-1.136368.603695-2.734385.07102-.355115.319604-1.136368.24858-.781253.639207-1.633529.426138-.887788.994322-1.704553.603695-.816764 1.42046-1.207391.603695.142046 1.598017.745742.994322.568184 1.704552 1.598017-.816764.9233-1.384948 1.846599-.532673.923299-.994322 1.917621-.426138.994322-.816765 2.059667-.355115 1.065345-.816764 2.237224-.390627.994322-.71023 2.059667-.319604 1.029834-.355115 1.811087 0 .639207-.03551.887787 0 .284092-.177557.284092-.142046 0-.568184-.177557-.426138-.177558-.887788-.532673-.426138-.390626-.781253-.95881-.355115-.568184-.355115-1.349437zm6.782697-15.411992q0-.213069.106534-.639207-.177557-.177557-.319603-.532672-.106535-.355115-.106535-.6392073 0-.3196035.07102-.852276.106535-.568184.248581-1.2073911.142046-.639207.355115-1.3139255.213069-.71023.426138-1.278414.426138 0 1.029833.2485805.639207.213069 1.278414.6036955.639208.355115 1.17188.8167645.532673.426138.816765.8167645-.390627.3906266-1.029834 1.1008566-.639207.6747185-1.242903 1.4559713-.603695.745742-1.100856 1.42046-.497161.674719-.639207.958811-.426138-.07102-.745742-.355115-.319603-.319604-.319603-.603696z" />
    <path d="m72.798428 23.260033q0-2.024155.816765-3.906265.852276-1.917621 2.201713-3.373593 1.384948-1.491483 3.125012-2.37927 1.775575-.923299 3.657684-.923299 1.846598 0 2.84092.923299.994323.923299.994323 2.627851 0 .816764-.248581 1.598018-.213069.745741-.603696 1.349437-.355115.603695-.852276.994322-.497161.355115-.994322.355115-.426138 0-.887787-.248581-.426138-.284092-.71023-.71023 2.37927-2.166201 2.37927-3.941777 0-1.029833-.816764-1.029833-.71023 0-1.775575.674718-1.065345.674719-2.059667 1.775575-1.526995 1.704553-2.343759 3.799731-.781253 2.059667-.781253 4.332403 0 2.876432 1.278414 3.444616.532672-.07102 1.242902-.319604.71023-.24858 1.526995-.639207.816764-.426138 1.66904-.95881.887788-.532673 1.704552-1.136368.142046.106534.248581.319603.106534.213069.106534.390627-.603695.745741-1.384948 1.455971-.781253.71023-1.633529 1.313926-.852276.568184-1.669041.95881-.781253.426138-1.384948.532673-1.17188-.106535-2.201713-.745742-1.029834-.603695-1.811087-1.598017-.745741-.994322-1.207391-2.272736-.426138-1.278414-.426138-2.663363z" />
    <path d="m110.56129 9.9432202q0 2.2017128-1.20739 3.9417768-1.20739 1.704552-3.30257 2.84092 1.34944.923299 2.13069 2.272736.81677 1.313926.81677 2.911943 0 1.917621-1.17188 3.799731-1.13637 1.846598-3.05399 3.302569-1.91762 1.42046-4.36792 2.308248-2.45029.887788-5.00712.887788-2.7699 0-4.86507-1.065345-2.059672-1.029834-3.231551-2.947455.355115-1.065345.923299-2.627851.603695-1.598018 1.313925-3.338081.710227-1.775575 1.420457-3.515639.74574-1.740064 1.38495-3.125012 1.34944-3.018478 2.41478-5.007122 1.06535-1.9886438 1.95314-3.1605234-1.95314.6036956-3.55115 1.3849486-1.59802.7457415-2.34376 1.4559718-.31961-.213069-.67472-.6392073-.319605-.426138-.639208-.923299-.284092-.5326725-.497161-1.0653451-.177558-.5326725-.213069-.9588105.923299-.639207 2.379268-1.207391 1.49149-.6036956 3.23155-1.0298336 1.74006-.426138 3.55115-.6747185 1.8466-.2485805 3.51564-.2485805 4.26138 0 6.67616 1.7045521 2.41478 1.704552 2.41478 4.7230296zm-13.52988 8.4872488q-.67472-.319603-1.2429-.95881-.81677 1.811086-1.56251 3.55115-.71023 1.740063-1.27841 3.231546-.56819 1.491483-.9233 2.59234-.35512 1.100856-.39063 1.598017.49716.284092 1.17188.426138.71023.142046 1.74007.142046 2.41478 0 4.61649-.674718 2.20171-.674719 3.87075-1.811087 1.66904-1.171879 2.66337-2.663362.99432-1.491483.99432-3.125012 0-2.343759-2.02416-3.373593-2.76989 1.136368-6.25002 1.136368-.49716 0-.78125 0-.24858 0-.6037-.07102zm6.88923-12.3224909q-.74574 0-1.59802.1065345-.81676.071023-1.74006.2485805.14205.142046.21307.3196035.10653.142046.17756.3196035-.31961.426138-.78126 1.2429026-.46165.8167645-1.02983 1.9176213-.56818 1.065345-1.20739 2.37927-.6037 1.313926-1.2429 2.698874.60369-.142046 1.45597-.213069.88779-.106534 1.74006-.106534.46165 0 .88779.03551.46165.03551.88779.106535 1.70455-.284092 3.05399-.816765 1.38494-.568184 2.37927-1.278414.99432-.745741 1.52699-1.633529.53267-.887787.53267-1.8821093 0-1.7045521-1.34943-2.5568281-1.34944-.8877875-3.90627-.8877865z" />
    <path d="m123.73606 15.163411q.35511 0 .81676.142046.49716.106534.88779.319603.39063.177558.63921.390627.28409.213069.28409.390626-.71023 1.491484-1.31393 3.018478-.60369 1.491483-1.02983 2.876432-.42614 1.384948-.67472 2.592339-.21307 1.207391-.21307 2.095179 0 .994322.21307 1.66904.21307.639207.71023.923299-.42614.284092-1.10086.46165-.67471.177557-1.20739.177557-1.91762 0-1.91762-2.627851 0-2.024155 1.34944-5.539794-.71023 1.633529-1.63353 3.089501-.9233 1.42046-1.88211 2.521316-.95881 1.100857-1.95313 1.811087-.95881.674718-1.77558.816764-1.31392-.07102-2.13069-1.242902-.81676-1.207391-.81676-3.053989 0-1.988644.85227-4.190357.85228-2.201713 2.16621-4.083823 1.34943-1.88211 2.91194-3.125012 1.56251-1.278414 3.01848-1.349437.35511.106534.78125.426138.46165.319603.85228.745741.42613.426138.71023.887788.28409.426138.3196.745741-1.42046.213069-2.94745 1.384949-1.49149 1.17188-2.73439 2.84092-1.20739 1.633529-1.98864 3.515639-.78126 1.882109-.78126 3.515638 0 .674719.49716.852276 1.02984-.213069 2.37927-1.740063 1.34944-1.562506 3.26706-4.794053.35512-.639207.78126-1.42046.46164-.781253.92329-1.633529.46165-.852276.88779-1.704552.46165-.887788.85228-1.704552z" />
    <path d="m133.92784 12.286979q.9233.284092 1.74006 1.278414.81677.958811 1.20739 2.13069-.39062.958811-1.20739 2.308248-.81676 1.349437-1.63353 2.769897-.81676 1.384949-1.49148 2.663363-.63921 1.242902-.74574 2.059667.56818-.603696 1.2429-1.384949.71023-.816764 1.34944-1.598017.67472-.816765 1.2429-1.455972.56818-.674718.88779-.994322.67472-.71023 1.59801-1.633529.9233-.95881 1.91763-1.775575 1.02983-.852276 2.05966-1.42046 1.02984-.603696 1.88211-.603696.9233 0 1.527.639207.6392.603696.99432 1.278414 0 .07102-.28409.213069-.24858.106535-.74574.674719-.49717.639207-1.13637 1.775575-.6037 1.100857-1.20739 2.414782-.56819 1.278414-.95881 2.627851-.39063 1.349437-.39063 2.450294 0 .887787.21307 1.136368.24858.24858.67472.24858.39062 0 .81676-.177557.42614-.177558.67472-.177558.14205.07102.21307.319604.10653.213069.10653.390626-.28409.248581-.67472.497161-.39062.248581-.81676.46165-.42614.213069-.85228.355115-.39062.142046-.71023.142046-1.02983 0-1.70455-.319604-.63921-.284092-1.02983-.781253-.35512-.497161-.49716-1.171879-.14205-.71023-.14205-1.491483 0-.426138.071-.958811.071-.532672.2841-1.242902.21307-.745742.60369-1.740064.39063-1.029833.99432-2.450293-.071 0-.95881.497161-.88778.497161-1.91762 1.526994-1.66904 1.598018-3.01848 3.160524-1.31392 1.562506-2.69887 3.480127-.78125 1.100856-1.38495 1.846598-.56818.781253-.99432 1.029834-.74574-.426139-1.10086-1.207392-.35511-.745741-.53267-1.562506 0-.674718.17756-1.704552.21307-1.029833.53267-2.272736.35512-1.278414.85228-2.663362.49716-1.384949 1.10085-2.769897 1.34944-3.125013 2.4503-4.900588 1.13637-1.775575 1.42046-1.917621z" />
    <path d="m155.09264 12.926186q.71023 0 1.63353.426138.9233.426138 1.63353 1.100857-.17756-1.42046-.46165-2.663363-.24858-1.278414-.78125-2.6278508-.49716-1.3494371-1.34944-2.9474546-.85227-1.5980176-2.13069-3.6576846.10654-.3196036.46165-.7457416.39063-.426138.85228-.781253.49716-.39062652.99432-.67471853.53267-.28409201.99432-.35511501.99432 1.10085654 1.88211 2.76989714.88779 1.633529 1.56251 3.5511501.67472 1.8821096 1.02983 3.9062649.39063 2.024156.39063 3.870754 0 1.846598-.42614 3.799731-.39063 1.953132-1.13637 3.835242-.71023 1.846598-1.66904 3.515638-.95881 1.669041-2.09518 2.982966-1.10085 1.313926-2.30825 2.13069-1.20739.852277-2.41478 1.065346-2.45029-.284092-3.76422-1.598018-1.27841-1.278414-1.27841-3.55115 0-1.207391.35511-2.627851.39063-1.42046.99433-2.805409.6392-1.42046 1.45597-2.734385.85227-1.349438 1.77557-2.414783.95881-1.065345 1.91762-1.811086.95881-.745742 1.88211-.958811zm-3.62217 17.081032q1.2429-.426138 2.48581-1.882109 1.2429-1.455972 2.23722-3.409104.99432-1.988644 1.59802-4.225869.6392-2.272736.6392-4.367915 0-.603695 0-.745741 0-.142046-.0355-.284092-.85227.355115-1.81108 1.207391-.95881.852276-1.91762 1.988644-.95881 1.100857-1.81109 2.414782-.85228 1.313926-1.527 2.627851-.67471 1.313926-1.06534 2.521317-.39063 1.207391-.39063 2.13069 0 1.775575 1.59802 2.024155z" />
  </g>
</svg>
